<svg xmlns="http://www.w3.org/2000/svg" xmlns:xlink="http://www.w3.org/1999/xlink" width="111" zoomAndPan="magnify" viewBox="0 0 83.25 36.000001" height="48" preserveAspectRatio="xMidYMid meet" version="1.0"><defs><g/><clipPath id="a3b8cfb069"><path d="M 0.761719 3 L 13 3 L 13 16 L 0.761719 16 Z M 0.761719 3 " clip-rule="nonzero"/></clipPath><clipPath id="01b2957ad3"><path d="M 0.761719 19 L 14 19 L 14 32 L 0.761719 32 Z M 0.761719 19 " clip-rule="nonzero"/></clipPath><clipPath id="a488ac794a"><path d="M 0.761719 19 L 15 19 L 15 32 L 0.761719 32 Z M 0.761719 19 " clip-rule="nonzero"/></clipPath></defs><g clip-path="url(#a3b8cfb069)"><g fill="#ff00ff" fill-opacity="1"><g transform="translate(-0.110207, 15.735941)"><g><path d="M 10.78125 0 L 12.535156 -1.753906 L 12.535156 -5.785156 L 10.78125 -7.539062 L 3.679688 -7.539062 L 3.679688 -9.464844 L 12.535156 -9.464844 L 12.535156 -12.273438 L 2.628906 -12.273438 L 0.875 -10.519531 L 0.875 -6.488281 L 2.628906 -4.734375 L 9.730469 -4.734375 L 9.730469 -2.804688 L 0.875 -2.804688 L 0.875 0 Z M 10.78125 0 "/></g></g></g></g><g fill="#ff00ff" fill-opacity="1"><g transform="translate(15.176724, 15.735941)"><g><path d="M 13.234375 0 L 13.234375 -10.519531 L 11.484375 -12.273438 L 1.316406 -12.273438 L 1.316406 -9.464844 L 10.429688 -9.464844 L 10.429688 -7.539062 L 2.628906 -7.539062 L 0.875 -5.785156 L 0.875 -1.753906 L 2.628906 0 L 9.554688 0 L 9.554688 -2.804688 L 3.679688 -2.804688 L 3.679688 -4.734375 L 10.429688 -4.734375 L 10.429688 -1.753906 L 12.183594 0 Z M 13.234375 0 "/></g></g></g><g fill="#ff00ff" fill-opacity="1"><g transform="translate(31.164855, 15.735941)"><g><path d="M 4.121094 -12.273438 L 0.0859375 -12.273438 L 0.0859375 -9.464844 L 1.402344 -9.464844 L 1.402344 0 L 4.207031 0 L 4.207031 -7.484375 C 5.46875 -5.769531 6.730469 -4.050781 8.011719 -2.332031 C 9.273438 -4.050781 10.554688 -5.769531 11.832031 -7.484375 L 11.832031 0 L 14.636719 0 L 14.636719 -12.273438 L 11.921875 -12.273438 C 10.605469 -10.519531 9.308594 -8.746094 8.011719 -6.996094 Z M 4.121094 -12.273438 "/></g></g></g><g fill="#ff00ff" fill-opacity="1"><g transform="translate(48.555377, 15.735941)"><g><path d="M 4.121094 -12.273438 L 0.0859375 -12.273438 L 0.0859375 -9.464844 L 1.402344 -9.464844 L 1.402344 0 L 4.207031 0 L 4.207031 -7.484375 C 5.46875 -5.769531 6.730469 -4.050781 8.011719 -2.332031 C 9.273438 -4.050781 10.554688 -5.769531 11.832031 -7.484375 L 11.832031 0 L 14.636719 0 L 14.636719 -12.273438 L 11.921875 -12.273438 C 10.605469 -10.519531 9.308594 -8.746094 8.011719 -6.996094 Z M 4.121094 -12.273438 "/></g></g></g><g fill="#ff00ff" fill-opacity="1"><g transform="translate(65.945893, 15.735941)"><g><path d="M 11.484375 0 L 13.234375 -1.753906 L 13.234375 -12.273438 L 10.429688 -12.273438 L 10.429688 -7.625 L 3.679688 -7.625 L 3.679688 -12.273438 L 0.875 -12.273438 L 0.875 -6.574219 L 2.628906 -4.820312 L 10.429688 -4.820312 L 10.429688 -2.804688 L 1.753906 -2.804688 L 1.753906 0 Z M 11.484375 0 "/></g></g></g><g fill="#00ffff" fill-opacity="1"><g transform="translate(1.630475, 15.522213)"><g><path d="M 10.78125 0 L 12.535156 -1.753906 L 12.535156 -5.785156 L 10.78125 -7.539062 L 3.679688 -7.539062 L 3.679688 -9.464844 L 12.535156 -9.464844 L 12.535156 -12.273438 L 2.628906 -12.273438 L 0.875 -10.519531 L 0.875 -6.488281 L 2.628906 -4.734375 L 9.730469 -4.734375 L 9.730469 -2.804688 L 0.875 -2.804688 L 0.875 0 Z M 10.78125 0 "/></g></g></g><g fill="#00ffff" fill-opacity="1"><g transform="translate(16.917407, 15.522213)"><g><path d="M 13.234375 0 L 13.234375 -10.519531 L 11.484375 -12.273438 L 1.316406 -12.273438 L 1.316406 -9.464844 L 10.429688 -9.464844 L 10.429688 -7.539062 L 2.628906 -7.539062 L 0.875 -5.785156 L 0.875 -1.753906 L 2.628906 0 L 9.554688 0 L 9.554688 -2.804688 L 3.679688 -2.804688 L 3.679688 -4.734375 L 10.429688 -4.734375 L 10.429688 -1.753906 L 12.183594 0 Z M 13.234375 0 "/></g></g></g><g fill="#00ffff" fill-opacity="1"><g transform="translate(32.905538, 15.522213)"><g><path d="M 4.121094 -12.273438 L 0.0859375 -12.273438 L 0.0859375 -9.464844 L 1.402344 -9.464844 L 1.402344 0 L 4.207031 0 L 4.207031 -7.484375 C 5.46875 -5.769531 6.730469 -4.050781 8.011719 -2.332031 C 9.273438 -4.050781 10.554688 -5.769531 11.832031 -7.484375 L 11.832031 0 L 14.636719 0 L 14.636719 -12.273438 L 11.921875 -12.273438 C 10.605469 -10.519531 9.308594 -8.746094 8.011719 -6.996094 Z M 4.121094 -12.273438 "/></g></g></g><g fill="#00ffff" fill-opacity="1"><g transform="translate(50.296059, 15.522213)"><g><path d="M 4.121094 -12.273438 L 0.0859375 -12.273438 L 0.0859375 -9.464844 L 1.402344 -9.464844 L 1.402344 0 L 4.207031 0 L 4.207031 -7.484375 C 5.46875 -5.769531 6.730469 -4.050781 8.011719 -2.332031 C 9.273438 -4.050781 10.554688 -5.769531 11.832031 -7.484375 L 11.832031 0 L 14.636719 0 L 14.636719 -12.273438 L 11.921875 -12.273438 C 10.605469 -10.519531 9.308594 -8.746094 8.011719 -6.996094 Z M 4.121094 -12.273438 "/></g></g></g><g fill="#00ffff" fill-opacity="1"><g transform="translate(67.686576, 15.522213)"><g><path d="M 11.484375 0 L 13.234375 -1.753906 L 13.234375 -12.273438 L 10.429688 -12.273438 L 10.429688 -7.625 L 3.679688 -7.625 L 3.679688 -12.273438 L 0.875 -12.273438 L 0.875 -6.574219 L 2.628906 -4.820312 L 10.429688 -4.820312 L 10.429688 -2.804688 L 1.753906 -2.804688 L 1.753906 0 Z M 11.484375 0 "/></g></g></g><g fill="#0876c4" fill-opacity="1"><g transform="translate(0.760134, 15.629077)"><g><path d="M 10.78125 0 L 12.535156 -1.753906 L 12.535156 -5.785156 L 10.78125 -7.539062 L 3.679688 -7.539062 L 3.679688 -9.464844 L 12.535156 -9.464844 L 12.535156 -12.273438 L 2.628906 -12.273438 L 0.875 -10.519531 L 0.875 -6.488281 L 2.628906 -4.734375 L 9.730469 -4.734375 L 9.730469 -2.804688 L 0.875 -2.804688 L 0.875 0 Z M 10.78125 0 "/></g></g></g><g fill="#0876c4" fill-opacity="1"><g transform="translate(16.047066, 15.629077)"><g><path d="M 13.234375 0 L 13.234375 -10.519531 L 11.484375 -12.273438 L 1.316406 -12.273438 L 1.316406 -9.464844 L 10.429688 -9.464844 L 10.429688 -7.539062 L 2.628906 -7.539062 L 0.875 -5.785156 L 0.875 -1.753906 L 2.628906 0 L 9.554688 0 L 9.554688 -2.804688 L 3.679688 -2.804688 L 3.679688 -4.734375 L 10.429688 -4.734375 L 10.429688 -1.753906 L 12.183594 0 Z M 13.234375 0 "/></g></g></g><g fill="#0876c4" fill-opacity="1"><g transform="translate(32.035197, 15.629077)"><g><path d="M 4.121094 -12.273438 L 0.0859375 -12.273438 L 0.0859375 -9.464844 L 1.402344 -9.464844 L 1.402344 0 L 4.207031 0 L 4.207031 -7.484375 C 5.46875 -5.769531 6.730469 -4.050781 8.011719 -2.332031 C 9.273438 -4.050781 10.554688 -5.769531 11.832031 -7.484375 L 11.832031 0 L 14.636719 0 L 14.636719 -12.273438 L 11.921875 -12.273438 C 10.605469 -10.519531 9.308594 -8.746094 8.011719 -6.996094 Z M 4.121094 -12.273438 "/></g></g></g><g fill="#0876c4" fill-opacity="1"><g transform="translate(49.425718, 15.629077)"><g><path d="M 4.121094 -12.273438 L 0.0859375 -12.273438 L 0.0859375 -9.464844 L 1.402344 -9.464844 L 1.402344 0 L 4.207031 0 L 4.207031 -7.484375 C 5.46875 -5.769531 6.730469 -4.050781 8.011719 -2.332031 C 9.273438 -4.050781 10.554688 -5.769531 11.832031 -7.484375 L 11.832031 0 L 14.636719 0 L 14.636719 -12.273438 L 11.921875 -12.273438 C 10.605469 -10.519531 9.308594 -8.746094 8.011719 -6.996094 Z M 4.121094 -12.273438 "/></g></g></g><g fill="#0876c4" fill-opacity="1"><g transform="translate(66.816234, 15.629077)"><g><path d="M 11.484375 0 L 13.234375 -1.753906 L 13.234375 -12.273438 L 10.429688 -12.273438 L 10.429688 -7.625 L 3.679688 -7.625 L 3.679688 -12.273438 L 0.875 -12.273438 L 0.875 -6.574219 L 2.628906 -4.820312 L 10.429688 -4.820312 L 10.429688 -2.804688 L 1.753906 -2.804688 L 1.753906 0 Z M 11.484375 0 "/></g></g></g><g clip-path="url(#01b2957ad3)"><g fill="#ff00ff" fill-opacity="1"><g transform="translate(-0.110207, 31.421875)"><g><path d="M 10.695312 -2.980469 L 12.445312 -4.734375 L 12.445312 -10.519531 L 10.695312 -12.273438 L 0.0859375 -12.273438 L 0.0859375 -9.464844 L 9.640625 -9.464844 L 9.640625 -5.785156 L 4.207031 -5.785156 L 4.207031 -8.589844 L 1.402344 -8.589844 L 1.402344 0 L 4.207031 0 L 4.207031 -2.980469 L 7.136719 -2.980469 C 8.011719 -1.980469 8.871094 -0.980469 9.765625 0 L 13.324219 0 C 12.429688 -0.980469 11.570312 -1.980469 10.695312 -2.980469 Z M 10.695312 -2.980469 "/></g></g></g></g><g fill="#ff00ff" fill-opacity="1"><g transform="translate(15.264371, 31.421875)"><g><path d="M 11.921875 0 L 13.675781 -1.753906 L 13.675781 -10.519531 L 11.921875 -12.273438 L 2.628906 -12.273438 L 0.875 -10.519531 L 0.875 -1.753906 L 2.628906 0 Z M 10.871094 -2.804688 L 3.679688 -2.804688 L 3.679688 -9.464844 L 10.871094 -9.464844 Z M 10.871094 -2.804688 "/></g></g></g><g fill="#ff00ff" fill-opacity="1"><g transform="translate(31.69075, 31.421875)"><g><path d="M 10.78125 0 L 12.535156 -1.753906 L 12.535156 -5.785156 L 10.78125 -7.539062 L 3.679688 -7.539062 L 3.679688 -9.464844 L 12.535156 -9.464844 L 12.535156 -12.273438 L 2.628906 -12.273438 L 0.875 -10.519531 L 0.875 -6.488281 L 2.628906 -4.734375 L 9.730469 -4.734375 L 9.730469 -2.804688 L 0.875 -2.804688 L 0.875 0 Z M 10.78125 0 "/></g></g></g><g fill="#ff00ff" fill-opacity="1"><g transform="translate(46.977681, 31.421875)"><g><path d="M 13.234375 0 L 13.234375 -10.519531 L 11.484375 -12.273438 L 1.316406 -12.273438 L 1.316406 -9.464844 L 10.429688 -9.464844 L 10.429688 -7.539062 L 2.628906 -7.539062 L 0.875 -5.785156 L 0.875 -1.753906 L 2.628906 0 L 9.554688 0 L 9.554688 -2.804688 L 3.679688 -2.804688 L 3.679688 -4.734375 L 10.429688 -4.734375 L 10.429688 -1.753906 L 12.183594 0 Z M 13.234375 0 "/></g></g></g><g fill="#00ffff" fill-opacity="1"><g transform="translate(1.630475, 31.208147)"><g><path d="M 10.695312 -2.980469 L 12.445312 -4.734375 L 12.445312 -10.519531 L 10.695312 -12.273438 L 0.0859375 -12.273438 L 0.0859375 -9.464844 L 9.640625 -9.464844 L 9.640625 -5.785156 L 4.207031 -5.785156 L 4.207031 -8.589844 L 1.402344 -8.589844 L 1.402344 0 L 4.207031 0 L 4.207031 -2.980469 L 7.136719 -2.980469 C 8.011719 -1.980469 8.871094 -0.980469 9.765625 0 L 13.324219 0 C 12.429688 -0.980469 11.570312 -1.980469 10.695312 -2.980469 Z M 10.695312 -2.980469 "/></g></g></g><g fill="#00ffff" fill-opacity="1"><g transform="translate(17.005054, 31.208147)"><g><path d="M 11.921875 0 L 13.675781 -1.753906 L 13.675781 -10.519531 L 11.921875 -12.273438 L 2.628906 -12.273438 L 0.875 -10.519531 L 0.875 -1.753906 L 2.628906 0 Z M 10.871094 -2.804688 L 3.679688 -2.804688 L 3.679688 -9.464844 L 10.871094 -9.464844 Z M 10.871094 -2.804688 "/></g></g></g><g fill="#00ffff" fill-opacity="1"><g transform="translate(33.431432, 31.208147)"><g><path d="M 10.78125 0 L 12.535156 -1.753906 L 12.535156 -5.785156 L 10.78125 -7.539062 L 3.679688 -7.539062 L 3.679688 -9.464844 L 12.535156 -9.464844 L 12.535156 -12.273438 L 2.628906 -12.273438 L 0.875 -10.519531 L 0.875 -6.488281 L 2.628906 -4.734375 L 9.730469 -4.734375 L 9.730469 -2.804688 L 0.875 -2.804688 L 0.875 0 Z M 10.78125 0 "/></g></g></g><g fill="#00ffff" fill-opacity="1"><g transform="translate(48.718364, 31.208147)"><g><path d="M 13.234375 0 L 13.234375 -10.519531 L 11.484375 -12.273438 L 1.316406 -12.273438 L 1.316406 -9.464844 L 10.429688 -9.464844 L 10.429688 -7.539062 L 2.628906 -7.539062 L 0.875 -5.785156 L 0.875 -1.753906 L 2.628906 0 L 9.554688 0 L 9.554688 -2.804688 L 3.679688 -2.804688 L 3.679688 -4.734375 L 10.429688 -4.734375 L 10.429688 -1.753906 L 12.183594 0 Z M 13.234375 0 "/></g></g></g><g clip-path="url(#a488ac794a)"><g fill="#0876c4" fill-opacity="1"><g transform="translate(0.760134, 31.315011)"><g><path d="M 10.695312 -2.980469 L 12.445312 -4.734375 L 12.445312 -10.519531 L 10.695312 -12.273438 L 0.0859375 -12.273438 L 0.0859375 -9.464844 L 9.640625 -9.464844 L 9.640625 -5.785156 L 4.207031 -5.785156 L 4.207031 -8.589844 L 1.402344 -8.589844 L 1.402344 0 L 4.207031 0 L 4.207031 -2.980469 L 7.136719 -2.980469 C 8.011719 -1.980469 8.871094 -0.980469 9.765625 0 L 13.324219 0 C 12.429688 -0.980469 11.570312 -1.980469 10.695312 -2.980469 Z M 10.695312 -2.980469 "/></g></g></g></g><g fill="#0876c4" fill-opacity="1"><g transform="translate(16.134713, 31.315011)"><g><path d="M 11.921875 0 L 13.675781 -1.753906 L 13.675781 -10.519531 L 11.921875 -12.273438 L 2.628906 -12.273438 L 0.875 -10.519531 L 0.875 -1.753906 L 2.628906 0 Z M 10.871094 -2.804688 L 3.679688 -2.804688 L 3.679688 -9.464844 L 10.871094 -9.464844 Z M 10.871094 -2.804688 "/></g></g></g><g fill="#0876c4" fill-opacity="1"><g transform="translate(32.561091, 31.315011)"><g><path d="M 10.78125 0 L 12.535156 -1.753906 L 12.535156 -5.785156 L 10.78125 -7.539062 L 3.679688 -7.539062 L 3.679688 -9.464844 L 12.535156 -9.464844 L 12.535156 -12.273438 L 2.628906 -12.273438 L 0.875 -10.519531 L 0.875 -6.488281 L 2.628906 -4.734375 L 9.730469 -4.734375 L 9.730469 -2.804688 L 0.875 -2.804688 L 0.875 0 Z M 10.78125 0 "/></g></g></g><g fill="#0876c4" fill-opacity="1"><g transform="translate(47.848022, 31.315011)"><g><path d="M 13.234375 0 L 13.234375 -10.519531 L 11.484375 -12.273438 L 1.316406 -12.273438 L 1.316406 -9.464844 L 10.429688 -9.464844 L 10.429688 -7.539062 L 2.628906 -7.539062 L 0.875 -5.785156 L 0.875 -1.753906 L 2.628906 0 L 9.554688 0 L 9.554688 -2.804688 L 3.679688 -2.804688 L 3.679688 -4.734375 L 10.429688 -4.734375 L 10.429688 -1.753906 L 12.183594 0 Z M 13.234375 0 "/></g></g></g></svg>